<?xml version="1.0" encoding="utf-8"?>
<!-- Generator: Adobe Illustrator 25.0.0, SVG Export Plug-In . SVG Version: 6.00 Build 0)  -->
<svg version="1.1" id="레이어_1" xmlns="http://www.w3.org/2000/svg" xmlns:xlink="http://www.w3.org/1999/xlink" x="0px"
	 y="0px" viewBox="0 0 44 40" style="enable-background:new 0 0 44 40;" xml:space="preserve">
<style type="text/css">
	.st0{fill:none;stroke:#464646;stroke-width:2;stroke-miterlimit:10;}
</style>
<path class="st0" d="M7.1,2.9l32.4,32.4l-2.8,2.8L24.5,25.8l-1.8,1.8L6.6,11.5C6.6,11.5,2.9,8.2,7.1,2.9z"/>
<line class="st0" x1="24.5" y1="25.8" x2="27.2" y2="23"/>
<polyline class="st0" points="15.5,23.9 3.5,35.8 6.1,38.5 18.1,26.5 "/>
<path class="st0" d="M32.6,0.8L24.4,9c0,0-3.8,3.1,0,6.9"/>
<path class="st0" d="M41.2,9.4L33,17.5c0,0-3.1,3.8-6.9,0"/>
<line class="st0" x1="35.5" y1="3.8" x2="27.6" y2="11.6"/>
<line class="st0" x1="38.1" y1="6.5" x2="30.3" y2="14.3"/>
</svg>
