<?xml version="1.0" encoding="utf-8"?>
<!-- Generator: Adobe Illustrator 25.0.0, SVG Export Plug-In . SVG Version: 6.00 Build 0)  -->
<svg version="1.1" id="레이어_1" xmlns="http://www.w3.org/2000/svg" xmlns:xlink="http://www.w3.org/1999/xlink" x="0px"
	 y="0px" viewBox="0 0 37.1 40" style="enable-background:new 0 0 37.1 40;" xml:space="preserve">
<style type="text/css">
	.st0{fill:none;stroke:#464646;stroke-width:2;stroke-miterlimit:10;}
</style>
<g>
	<path class="st0" d="M33.4,33.5H8c-1.5,0-2.7-1.2-2.7-2.7V13.4c0-1.5,1.2-2.7,2.7-2.7h25.4c1.5,0,2.7,1.2,2.7,2.7v17.4
		C36.1,32.3,34.9,33.5,33.4,33.5z"/>
</g>
<g>
	<path class="st0" d="M3.2,29.3c-1.2,0-2.2-1-2.2-2.2V8.7c0-1.2,1-2.2,2.2-2.2h26.4c1.2,0,2.2,1,2.2,2.2V9"/>
</g>
<circle class="st0" cx="27.7" cy="17.9" r="2.5"/>
<polyline class="st0" points="6.7,33.4 16.2,20.3 21.4,26.9 24.9,23.1 33.9,33.5 "/>
</svg>
