<?xml version="1.0" encoding="utf-8"?>
<!-- Generator: Adobe Illustrator 25.0.0, SVG Export Plug-In . SVG Version: 6.00 Build 0)  -->
<svg version="1.1" id="레이어_1" xmlns="http://www.w3.org/2000/svg" xmlns:xlink="http://www.w3.org/1999/xlink" x="0px"
	 y="0px" viewBox="0 0 6.1 7" style="enable-background:new 0 0 6.1 7;" xml:space="preserve">
<style type="text/css">
	.st0{fill:#5BC8F3;}
	.st1{clip-path:url(#SVGID_2_);fill:url(#SVGID_3_);}
	.st2{clip-path:url(#SVGID_5_);fill:url(#SVGID_6_);}
	.st3{clip-path:url(#SVGID_8_);fill:url(#SVGID_9_);}
</style>
<g>
	<path class="st0" d="M0.1,0.3C0,0.3,0,0.5,0,0.6v5.8c0,0.2,0,0.3,0.1,0.4l0,0l3.2-3.2V3.5L0.1,0.3L0.1,0.3"/>
	<g>
		<g>
			<defs>
				<path id="SVGID_1_" d="M4.4,4.6l-1-1.1l0,0l1.1-1.1l1.3,0.7c0.4,0.2,0.4,0.5,0,0.8L4.4,4.6L4.4,4.6"/>
			</defs>
			<clipPath id="SVGID_2_">
				<use xlink:href="#SVGID_1_"  style="overflow:visible;"/>
			</clipPath>
			
				<linearGradient id="SVGID_3_" gradientUnits="userSpaceOnUse" x1="-173.1884" y1="4.6312" x2="-172.9279" y2="4.6312" gradientTransform="matrix(-24.1769 0 0 -24.1769 -4181.6577 115.5057)">
				<stop  offset="0" style="stop-color:#FDDF00"/>
				<stop  offset="0.3987" style="stop-color:#FBBD0D"/>
				<stop  offset="0.7744" style="stop-color:#F9A317"/>
				<stop  offset="1" style="stop-color:#F89A1B"/>
			</linearGradient>
			<rect x="3.4" y="2.4" class="st1" width="2.7" height="2.2"/>
		</g>
	</g>
	<g>
		<g>
			<defs>
				<path id="SVGID_4_" d="M4.5,4.6L3.4,3.5L0.1,6.7c0.1,0.1,0.3,0.1,0.5,0L4.5,4.6"/>
			</defs>
			<clipPath id="SVGID_5_">
				<use xlink:href="#SVGID_4_"  style="overflow:visible;"/>
			</clipPath>
			
				<linearGradient id="SVGID_6_" gradientUnits="userSpaceOnUse" x1="-170.0369" y1="2.3142" x2="-169.7764" y2="2.3142" gradientTransform="matrix(-22.7394 22.7394 -22.7394 -22.7394 -3810.2803 3923.0657)">
				<stop  offset="0" style="stop-color:#EE4447"/>
				<stop  offset="1" style="stop-color:#C6176D"/>
			</linearGradient>
			<polygon class="st2" points="6.2,5.2 2.3,9.1 -1.6,5.2 2.3,1.3 			"/>
		</g>
	</g>
	<g>
		<g>
			<defs>
				<path id="SVGID_7_" d="M4.5,2.4L0.7,0.2c-0.2-0.1-0.4-0.1-0.5,0l3.2,3.2L4.5,2.4"/>
			</defs>
			<clipPath id="SVGID_8_">
				<use xlink:href="#SVGID_7_"  style="overflow:visible;"/>
			</clipPath>
			
				<linearGradient id="SVGID_9_" gradientUnits="userSpaceOnUse" x1="-162.1898" y1="3.2746" x2="-161.9293" y2="3.2746" gradientTransform="matrix(18.5663 18.5663 -18.5663 18.5663 3069.7449 2947.6887)">
				<stop  offset="0" style="stop-color:#259D6F"/>
				<stop  offset="5.998981e-02" style="stop-color:#2BA06E"/>
				<stop  offset="0.4714" style="stop-color:#53B16B"/>
				<stop  offset="0.799" style="stop-color:#6BBC69"/>
				<stop  offset="1" style="stop-color:#74C068"/>
			</linearGradient>
			<polygon class="st3" points="2.3,-2.1 6.2,1.8 2.3,5.7 -1.6,1.8 			"/>
		</g>
	</g>
</g>
</svg>
