<?xml version="1.0" encoding="utf-8"?>
<!-- Generator: Adobe Illustrator 25.0.0, SVG Export Plug-In . SVG Version: 6.00 Build 0)  -->
<svg version="1.1" id="레이어_1" xmlns="http://www.w3.org/2000/svg" xmlns:xlink="http://www.w3.org/1999/xlink" x="0px"
	 y="0px" viewBox="0 0 44 40" style="enable-background:new 0 0 44 40;" xml:space="preserve">
<style type="text/css">
	.st0{fill:none;stroke:#464646;stroke-width:2;stroke-miterlimit:10;}
</style>
<path class="st0" d="M16.1,26.8"/>
<path class="st0" d="M18.2,26.8"/>
<polyline class="st0" points="13,7.5 26,18.5 39.5,7 "/>
<line class="st0" x1="15.6" y1="21.9" x2="23.1" y2="16"/>
<line class="st0" x1="29" y1="15.9" x2="39.5" y2="24.1"/>
<path class="st0" d="M2,9.5l5.5-2.2l4.2,7.4L9.1,20l7.8,7.5l5.1-2.7l7.4,4.5l-2.3,5.2c0,0-6.4,5.9-18.1-6.4S2,9.5,2,9.5z"/>
<path class="st0" d="M9.1,9.2"/>
<path class="st0" d="M9.1,19.6"/>
<path class="st0" d="M9.1,10.1V6.5c0-1.3,1-2.3,2.3-2.3h29.2c1.3,0,2.3,1,2.3,2.3v18.4c0,1.3-1,2.3-3.2,2.3H25.9"/>
</svg>
