<?xml version="1.0" encoding="utf-8"?>
<!-- Generator: Adobe Illustrator 25.0.0, SVG Export Plug-In . SVG Version: 6.00 Build 0)  -->
<svg version="1.1" id="레이어_1" xmlns="http://www.w3.org/2000/svg" xmlns:xlink="http://www.w3.org/1999/xlink" x="0px"
	 y="0px" viewBox="0 0 42.9 40" style="enable-background:new 0 0 42.9 40;" xml:space="preserve">
<style type="text/css">
	.st0{fill:none;stroke:#464646;stroke-width:2;stroke-miterlimit:10;}
</style>
<polyline class="st0" points="34.6,19.9 41.4,36.3 1.5,36.3 8.6,19.1 26.2,19.1 "/>
<circle class="st0" cx="30.2" cy="11.1" r="3"/>
<path class="st0" d="M38.1,11.3c0,4.2-7.6,15.2-7.6,15.2s-7.6-11.1-7.6-15.2s3.4-7.6,7.6-7.6S38.1,7.1,38.1,11.3z"/>
<path class="st0" d="M12.8,19.1c0,0,0,1.5,2,2.5c2,1,1.4,0.7,1.4,0.7s2.9,1.4,1.8,2.9c-1.5,2.4-0.9,1.3-0.9,1.3s-2.1,2.9,2.2,3.7
	c4.4,0.9,7.3,1,7.3,1s5.2-0.2,6.5,4.9"/>
</svg>
