<?xml version="1.0" encoding="utf-8"?>
<!-- Generator: Adobe Illustrator 25.0.0, SVG Export Plug-In . SVG Version: 6.00 Build 0)  -->
<svg version="1.1" id="레이어_1" xmlns="http://www.w3.org/2000/svg" xmlns:xlink="http://www.w3.org/1999/xlink" x="0px"
	 y="0px" viewBox="0 0 44 35.8" style="enable-background:new 0 0 44 35.8;" xml:space="preserve">
<style type="text/css">
	.st0{fill:none;stroke:#464646;stroke-width:2;stroke-miterlimit:10;}
</style>
<path class="st0" d="M43,30.9H1v-4.3c0-2.3,1.9-4.1,4.1-4.1h33.7c2.3,0,4.1,1.9,4.1,4.1L43,30.9L43,30.9z"/>
<path class="st0" d="M12.4,12.4"/>
<path class="st0" d="M12.4,12.4H6.8V8.6c0-4.2,3.4-7.6,7.6-7.6h15.4c4.2,0,7.6,3.4,7.6,7.6v3.8h-6.1"/>
<line class="st0" x1="6.8" y1="12.4" x2="1.4" y2="25.3"/>
<line class="st0" x1="37.3" y1="12.4" x2="42.7" y2="25.6"/>
<line class="st0" x1="1" y1="30.9" x2="1" y2="35.8"/>
<line class="st0" x1="43" y1="30.9" x2="43" y2="35.8"/>
<rect x="12.4" y="6.8" class="st0" width="18.9" height="8.8"/>
<line class="st0" x1="21.9" y1="6.8" x2="21.9" y2="15.5"/>
</svg>
