<?xml version="1.0" encoding="utf-8"?>
<!-- Generator: Adobe Illustrator 25.0.0, SVG Export Plug-In . SVG Version: 6.00 Build 0)  -->
<svg version="1.1" id="레이어_1" xmlns="http://www.w3.org/2000/svg" xmlns:xlink="http://www.w3.org/1999/xlink" x="0px"
	 y="0px" viewBox="0 0 5.4 7" style="enable-background:new 0 0 5.4 7;" xml:space="preserve">
<style type="text/css">
	.st0{fill:#FFFFFF;}
</style>
<g>
	<g>
		<path class="st0" d="M4.5,3.7c0-0.8,0.7-1.2,0.7-1.3C4.8,1.9,4.2,1.8,4,1.8C3.5,1.7,3,2.1,2.7,2.1c-0.3,0-0.7-0.3-1.1-0.3
			c-0.6,0-1.1,0.3-1.4,0.8c-0.6,1-0.1,2.5,0.4,3.4c0.3,0.4,0.6,0.9,1,0.8c0.4,0,0.6-0.3,1.1-0.3c0.5,0,0.7,0.3,1.1,0.3
			c0.5,0,0.7-0.4,1-0.8c0.3-0.5,0.5-0.9,0.5-0.9C5.4,5.1,4.5,4.7,4.5,3.7z"/>
		<path class="st0" d="M3.7,1.2C3.9,1,4.1,0.6,4,0.2c-0.3,0-0.7,0.2-1,0.5c-0.2,0.2-0.4,0.6-0.3,1C3.1,1.7,3.4,1.5,3.7,1.2z"/>
	</g>
</g>
</svg>
